<?xml version="1.0" encoding="UTF-8"?>
<svg xmlns="http://www.w3.org/2000/svg" xmlns:xlink="http://www.w3.org/1999/xlink" width="25px" height="25px" viewBox="0 0 25 25" version="1.1">
<g id="surface1">
<path style=" stroke:none;fill-rule:nonzero;fill:rgb(90.588235%,92.54902%,98.823529%);fill-opacity:1;" d="M 13.707031 0.328125 C 14.179688 0.667969 14.492188 1.128906 14.601562 1.710938 C 14.644531 2.417969 14.523438 2.960938 14.074219 3.523438 C 13.769531 3.859375 13.382812 4.0625 12.9375 4.148438 C 12.9375 4.972656 12.9375 5.792969 12.9375 6.640625 C 13.160156 6.640625 13.382812 6.636719 13.609375 6.636719 C 14.339844 6.632812 15.070312 6.632812 15.800781 6.628906 C 16.246094 6.628906 16.6875 6.628906 17.132812 6.625 C 17.519531 6.625 17.90625 6.621094 18.292969 6.621094 C 18.496094 6.621094 18.699219 6.621094 18.902344 6.621094 C 19.097656 6.617188 19.289062 6.617188 19.484375 6.617188 C 19.554688 6.617188 19.625 6.617188 19.695312 6.617188 C 20.605469 6.609375 21.386719 6.824219 22.058594 7.457031 C 22.617188 8.003906 22.941406 8.726562 22.960938 9.511719 C 22.960938 9.59375 22.960938 9.671875 22.957031 9.753906 C 22.957031 9.816406 22.957031 9.816406 22.957031 9.882812 C 22.957031 10.015625 22.957031 10.148438 22.957031 10.285156 C 22.953125 10.375 22.953125 10.46875 22.953125 10.558594 C 22.953125 10.785156 22.953125 11.007812 22.949219 11.230469 C 23.019531 11.230469 23.019531 11.230469 23.089844 11.230469 C 23.152344 11.226562 23.214844 11.226562 23.277344 11.226562 C 23.367188 11.226562 23.367188 11.226562 23.460938 11.226562 C 23.90625 11.238281 24.269531 11.453125 24.597656 11.746094 C 25.003906 12.179688 25.03125 12.691406 25.027344 13.257812 C 25.027344 13.328125 25.027344 13.402344 25.027344 13.472656 C 25.027344 13.625 25.027344 13.777344 25.027344 13.929688 C 25.023438 14.121094 25.023438 14.3125 25.027344 14.507812 C 25.027344 14.65625 25.027344 14.804688 25.027344 14.957031 C 25.027344 15.027344 25.027344 15.097656 25.027344 15.167969 C 25.03125 15.792969 24.925781 16.226562 24.488281 16.6875 C 24.144531 16.992188 23.777344 17.097656 23.332031 17.09375 C 23.292969 17.09375 23.257812 17.09375 23.21875 17.09375 C 23.128906 17.089844 23.039062 17.089844 22.949219 17.089844 C 22.949219 17.175781 22.949219 17.175781 22.953125 17.261719 C 22.957031 17.476562 22.957031 17.6875 22.960938 17.902344 C 22.960938 17.992188 22.960938 18.085938 22.964844 18.175781 C 22.980469 19.179688 22.851562 20.03125 22.132812 20.789062 C 22.09375 20.824219 22.058594 20.859375 22.023438 20.898438 C 21.992188 20.929688 21.960938 20.960938 21.933594 20.992188 C 21.734375 21.1875 21.515625 21.308594 21.269531 21.425781 C 21.238281 21.441406 21.207031 21.453125 21.175781 21.46875 C 20.808594 21.636719 20.4375 21.695312 20.035156 21.691406 C 19.972656 21.691406 19.972656 21.691406 19.914062 21.691406 C 19.777344 21.691406 19.644531 21.691406 19.511719 21.691406 C 19.414062 21.691406 19.316406 21.691406 19.222656 21.691406 C 19.015625 21.691406 18.804688 21.691406 18.597656 21.691406 C 18.269531 21.691406 17.945312 21.691406 17.617188 21.691406 C 16.683594 21.695312 15.75 21.695312 14.820312 21.695312 C 14.304688 21.695312 13.789062 21.695312 13.273438 21.695312 C 12.945312 21.699219 12.621094 21.695312 12.296875 21.695312 C 12.09375 21.695312 11.890625 21.695312 11.6875 21.699219 C 11.59375 21.699219 11.5 21.699219 11.40625 21.695312 C 10.738281 21.683594 10.738281 21.683594 10.15625 21.972656 C 10.085938 22.019531 10.015625 22.0625 9.949219 22.109375 C 9.875 22.15625 9.800781 22.207031 9.730469 22.257812 C 9.6875 22.285156 9.648438 22.3125 9.609375 22.339844 C 9.519531 22.398438 9.433594 22.457031 9.347656 22.515625 C 9.117188 22.671875 8.882812 22.832031 8.648438 22.988281 C 8.601562 23.019531 8.554688 23.054688 8.503906 23.085938 C 7.960938 23.453125 7.414062 23.8125 6.871094 24.171875 C 6.800781 24.21875 6.800781 24.21875 6.730469 24.265625 C 6.558594 24.378906 6.386719 24.492188 6.214844 24.601562 C 6.160156 24.636719 6.160156 24.636719 6.105469 24.675781 C 6.070312 24.695312 6.039062 24.71875 6.003906 24.742188 C 5.914062 24.800781 5.828125 24.859375 5.742188 24.917969 C 5.546875 25.042969 5.453125 25.03125 5.226562 25 C 5.070312 24.878906 4.992188 24.804688 4.949219 24.609375 C 4.953125 24.554688 4.953125 24.5 4.953125 24.445312 C 4.953125 24.382812 4.953125 24.324219 4.953125 24.257812 C 4.953125 24.191406 4.957031 24.125 4.957031 24.058594 C 4.957031 23.992188 4.957031 23.921875 4.957031 23.851562 C 4.957031 23.671875 4.960938 23.492188 4.964844 23.3125 C 4.964844 23.128906 4.96875 22.945312 4.96875 22.761719 C 4.972656 22.402344 4.976562 22.039062 4.980469 21.679688 C 4.949219 21.679688 4.921875 21.679688 4.890625 21.679688 C 4.851562 21.679688 4.8125 21.679688 4.769531 21.679688 C 4.730469 21.679688 4.691406 21.679688 4.652344 21.683594 C 3.9375 21.667969 3.316406 21.242188 2.832031 20.75 C 2.804688 20.726562 2.777344 20.699219 2.75 20.671875 C 2.058594 19.949219 2.027344 18.988281 2.042969 18.050781 C 2.042969 17.957031 2.042969 17.863281 2.042969 17.769531 C 2.046875 17.542969 2.046875 17.316406 2.050781 17.089844 C 1.996094 17.089844 1.945312 17.089844 1.890625 17.09375 C 1.816406 17.09375 1.746094 17.09375 1.675781 17.09375 C 1.625 17.09375 1.625 17.09375 1.570312 17.097656 C 1.074219 17.097656 0.757812 16.914062 0.402344 16.574219 C 0.105469 16.246094 -0.00390625 15.933594 -0.0078125 15.5 C -0.0078125 15.46875 -0.0078125 15.4375 -0.0078125 15.40625 C -0.0117188 15.300781 -0.0117188 15.195312 -0.0117188 15.09375 C -0.0117188 15.054688 -0.0117188 15.019531 -0.0117188 14.984375 C -0.0117188 14.792969 -0.015625 14.605469 -0.015625 14.414062 C -0.015625 14.21875 -0.015625 14.023438 -0.0195312 13.828125 C -0.0195312 13.679688 -0.0195312 13.527344 -0.0195312 13.375 C -0.0195312 13.304688 -0.0195312 13.230469 -0.0234375 13.160156 C -0.0273438 12.566406 0.0507812 12.113281 0.472656 11.671875 C 0.851562 11.339844 1.226562 11.222656 1.722656 11.226562 C 1.785156 11.226562 1.847656 11.226562 1.910156 11.230469 C 1.980469 11.230469 1.980469 11.230469 2.050781 11.230469 C 2.050781 11.175781 2.050781 11.121094 2.046875 11.0625 C 2.046875 10.851562 2.042969 10.644531 2.042969 10.433594 C 2.042969 10.34375 2.039062 10.253906 2.039062 10.164062 C 2.027344 9.160156 2.148438 8.277344 2.867188 7.523438 C 3.515625 6.875 4.273438 6.628906 5.171875 6.628906 C 5.238281 6.628906 5.308594 6.628906 5.375 6.628906 C 5.449219 6.628906 5.523438 6.628906 5.59375 6.628906 C 5.792969 6.628906 5.988281 6.628906 6.1875 6.628906 C 6.394531 6.632812 6.601562 6.632812 6.808594 6.632812 C 7.199219 6.632812 7.589844 6.632812 7.980469 6.632812 C 8.425781 6.632812 8.871094 6.636719 9.316406 6.636719 C 10.230469 6.636719 11.144531 6.636719 12.0625 6.640625 C 12.0625 5.820312 12.0625 4.996094 12.0625 4.148438 C 11.898438 4.101562 11.738281 4.054688 11.570312 4.003906 C 11.410156 3.921875 11.273438 3.820312 11.132812 3.710938 C 11.101562 3.6875 11.074219 3.664062 11.042969 3.640625 C 10.6875 3.328125 10.421875 2.792969 10.390625 2.320312 C 10.371094 1.644531 10.515625 1.085938 10.984375 0.578125 C 11.738281 -0.140625 12.835938 -0.203125 13.707031 0.328125 Z M 13.707031 0.328125 "/>
<path style=" stroke:none;fill-rule:nonzero;fill:rgb(26.27451%,55.294118%,99.607843%);fill-opacity:1;" d="M 13.707031 0.328125 C 14.179688 0.667969 14.492188 1.128906 14.601562 1.710938 C 14.644531 2.417969 14.523438 2.960938 14.074219 3.523438 C 13.769531 3.859375 13.382812 4.0625 12.9375 4.148438 C 12.9375 4.972656 12.9375 5.792969 12.9375 6.640625 C 13.160156 6.640625 13.382812 6.636719 13.609375 6.636719 C 14.339844 6.632812 15.070312 6.632812 15.800781 6.628906 C 16.246094 6.628906 16.6875 6.628906 17.132812 6.625 C 17.519531 6.625 17.90625 6.621094 18.292969 6.621094 C 18.496094 6.621094 18.699219 6.621094 18.902344 6.621094 C 19.097656 6.617188 19.289062 6.617188 19.484375 6.617188 C 19.554688 6.617188 19.625 6.617188 19.695312 6.617188 C 20.605469 6.609375 21.386719 6.824219 22.058594 7.457031 C 22.617188 8.003906 22.941406 8.726562 22.960938 9.511719 C 22.960938 9.59375 22.960938 9.671875 22.957031 9.753906 C 22.957031 9.816406 22.957031 9.816406 22.957031 9.882812 C 22.957031 10.015625 22.957031 10.148438 22.957031 10.285156 C 22.953125 10.375 22.953125 10.46875 22.953125 10.558594 C 22.953125 10.785156 22.953125 11.007812 22.949219 11.230469 C 23.019531 11.230469 23.019531 11.230469 23.089844 11.230469 C 23.152344 11.226562 23.214844 11.226562 23.277344 11.226562 C 23.367188 11.226562 23.367188 11.226562 23.460938 11.226562 C 23.90625 11.238281 24.269531 11.453125 24.597656 11.746094 C 25.003906 12.179688 25.03125 12.691406 25.027344 13.257812 C 25.027344 13.328125 25.027344 13.402344 25.027344 13.472656 C 25.027344 13.625 25.027344 13.777344 25.027344 13.929688 C 25.023438 14.121094 25.023438 14.3125 25.027344 14.507812 C 25.027344 14.65625 25.027344 14.804688 25.027344 14.957031 C 25.027344 15.027344 25.027344 15.097656 25.027344 15.167969 C 25.03125 15.792969 24.925781 16.226562 24.488281 16.6875 C 24.144531 16.992188 23.777344 17.097656 23.332031 17.09375 C 23.292969 17.09375 23.257812 17.09375 23.21875 17.09375 C 23.128906 17.089844 23.039062 17.089844 22.949219 17.089844 C 22.949219 17.175781 22.949219 17.175781 22.953125 17.261719 C 22.957031 17.476562 22.957031 17.6875 22.960938 17.902344 C 22.960938 17.992188 22.960938 18.085938 22.964844 18.175781 C 22.980469 19.179688 22.851562 20.03125 22.132812 20.789062 C 22.09375 20.824219 22.058594 20.859375 22.023438 20.898438 C 21.992188 20.929688 21.960938 20.960938 21.933594 20.992188 C 21.734375 21.1875 21.515625 21.308594 21.269531 21.425781 C 21.238281 21.441406 21.207031 21.453125 21.175781 21.46875 C 20.808594 21.636719 20.4375 21.695312 20.035156 21.691406 C 19.972656 21.691406 19.972656 21.691406 19.914062 21.691406 C 19.777344 21.691406 19.644531 21.691406 19.511719 21.691406 C 19.414062 21.691406 19.316406 21.691406 19.222656 21.691406 C 19.015625 21.691406 18.804688 21.691406 18.597656 21.691406 C 18.269531 21.691406 17.945312 21.691406 17.617188 21.691406 C 16.683594 21.695312 15.75 21.695312 14.820312 21.695312 C 14.304688 21.695312 13.789062 21.695312 13.273438 21.695312 C 12.945312 21.699219 12.621094 21.695312 12.296875 21.695312 C 12.09375 21.695312 11.890625 21.695312 11.6875 21.699219 C 11.59375 21.699219 11.5 21.699219 11.40625 21.695312 C 10.738281 21.683594 10.738281 21.683594 10.15625 21.972656 C 10.085938 22.019531 10.015625 22.0625 9.949219 22.109375 C 9.875 22.15625 9.800781 22.207031 9.730469 22.257812 C 9.6875 22.285156 9.648438 22.3125 9.609375 22.339844 C 9.519531 22.398438 9.433594 22.457031 9.347656 22.515625 C 9.117188 22.671875 8.882812 22.832031 8.648438 22.988281 C 8.601562 23.019531 8.554688 23.054688 8.503906 23.085938 C 7.960938 23.453125 7.414062 23.8125 6.871094 24.171875 C 6.800781 24.21875 6.800781 24.21875 6.730469 24.265625 C 6.558594 24.378906 6.386719 24.492188 6.214844 24.601562 C 6.160156 24.636719 6.160156 24.636719 6.105469 24.675781 C 6.070312 24.695312 6.039062 24.71875 6.003906 24.742188 C 5.914062 24.800781 5.828125 24.859375 5.742188 24.917969 C 5.546875 25.042969 5.453125 25.03125 5.226562 25 C 5.070312 24.878906 4.992188 24.804688 4.949219 24.609375 C 4.953125 24.554688 4.953125 24.5 4.953125 24.445312 C 4.953125 24.382812 4.953125 24.324219 4.953125 24.257812 C 4.953125 24.191406 4.957031 24.125 4.957031 24.058594 C 4.957031 23.992188 4.957031 23.921875 4.957031 23.851562 C 4.957031 23.671875 4.960938 23.492188 4.964844 23.3125 C 4.964844 23.128906 4.96875 22.945312 4.96875 22.761719 C 4.972656 22.402344 4.976562 22.039062 4.980469 21.679688 C 4.949219 21.679688 4.921875 21.679688 4.890625 21.679688 C 4.851562 21.679688 4.8125 21.679688 4.769531 21.679688 C 4.730469 21.679688 4.691406 21.679688 4.652344 21.683594 C 3.9375 21.667969 3.316406 21.242188 2.832031 20.75 C 2.804688 20.726562 2.777344 20.699219 2.75 20.671875 C 2.058594 19.949219 2.027344 18.988281 2.042969 18.050781 C 2.042969 17.957031 2.042969 17.863281 2.042969 17.769531 C 2.046875 17.542969 2.046875 17.316406 2.050781 17.089844 C 1.996094 17.089844 1.945312 17.089844 1.890625 17.09375 C 1.816406 17.09375 1.746094 17.09375 1.675781 17.09375 C 1.625 17.09375 1.625 17.09375 1.570312 17.097656 C 1.074219 17.097656 0.757812 16.914062 0.402344 16.574219 C 0.105469 16.246094 -0.00390625 15.933594 -0.0078125 15.5 C -0.0078125 15.46875 -0.0078125 15.4375 -0.0078125 15.40625 C -0.0117188 15.300781 -0.0117188 15.195312 -0.0117188 15.09375 C -0.0117188 15.054688 -0.0117188 15.019531 -0.0117188 14.984375 C -0.0117188 14.792969 -0.015625 14.605469 -0.015625 14.414062 C -0.015625 14.21875 -0.015625 14.023438 -0.0195312 13.828125 C -0.0195312 13.679688 -0.0195312 13.527344 -0.0195312 13.375 C -0.0195312 13.304688 -0.0195312 13.230469 -0.0234375 13.160156 C -0.0273438 12.566406 0.0507812 12.113281 0.472656 11.671875 C 0.851562 11.339844 1.226562 11.222656 1.722656 11.226562 C 1.785156 11.226562 1.847656 11.226562 1.910156 11.230469 C 1.980469 11.230469 1.980469 11.230469 2.050781 11.230469 C 2.050781 11.175781 2.050781 11.121094 2.046875 11.0625 C 2.046875 10.851562 2.042969 10.644531 2.042969 10.433594 C 2.042969 10.34375 2.039062 10.253906 2.039062 10.164062 C 2.027344 9.160156 2.148438 8.277344 2.867188 7.523438 C 3.414062 6.976562 4.097656 6.664062 4.871094 6.621094 C 5.082031 6.625 5.207031 6.699219 5.371094 6.835938 C 5.441406 6.976562 5.4375 7.070312 5.421875 7.226562 C 5.203125 7.484375 5.074219 7.519531 4.746094 7.550781 C 4.246094 7.605469 3.785156 7.824219 3.441406 8.203125 C 3.136719 8.617188 2.964844 9.027344 2.964844 9.542969 C 2.964844 9.585938 2.964844 9.625 2.964844 9.667969 C 2.964844 9.804688 2.964844 9.941406 2.964844 10.078125 C 2.964844 10.179688 2.964844 10.277344 2.964844 10.375 C 2.960938 10.640625 2.960938 10.910156 2.960938 11.175781 C 2.960938 11.34375 2.960938 11.507812 2.960938 11.675781 C 2.960938 12.257812 2.960938 12.839844 2.960938 13.421875 C 2.960938 13.964844 2.960938 14.507812 2.957031 15.050781 C 2.957031 15.515625 2.957031 15.984375 2.957031 16.449219 C 2.957031 16.726562 2.957031 17.003906 2.953125 17.285156 C 2.953125 17.546875 2.953125 17.808594 2.953125 18.070312 C 2.953125 18.164062 2.953125 18.261719 2.953125 18.355469 C 2.941406 19.042969 2.941406 19.042969 3.171875 19.679688 C 3.195312 19.71875 3.21875 19.757812 3.242188 19.796875 C 3.53125 20.285156 3.949219 20.597656 4.492188 20.75 C 4.679688 20.78125 4.867188 20.804688 5.054688 20.824219 C 5.398438 20.878906 5.5625 21.023438 5.761719 21.289062 C 5.820312 21.40625 5.816406 21.484375 5.816406 21.617188 C 5.816406 21.6875 5.816406 21.6875 5.816406 21.761719 C 5.816406 21.8125 5.816406 21.867188 5.816406 21.917969 C 5.816406 21.972656 5.816406 22.027344 5.816406 22.082031 C 5.816406 22.25 5.8125 22.417969 5.8125 22.589844 C 5.8125 22.703125 5.8125 22.820312 5.8125 22.933594 C 5.8125 23.214844 5.8125 23.496094 5.8125 23.78125 C 6.433594 23.398438 7.039062 22.992188 7.644531 22.582031 C 7.824219 22.460938 8.007812 22.335938 8.1875 22.214844 C 8.253906 22.171875 8.253906 22.171875 8.320312 22.125 C 8.6875 21.878906 9.054688 21.632812 9.421875 21.386719 C 9.460938 21.359375 9.5 21.335938 9.539062 21.308594 C 9.625 21.253906 9.707031 21.199219 9.792969 21.140625 C 9.847656 21.105469 9.898438 21.070312 9.953125 21.035156 C 10.234375 20.875 10.480469 20.835938 10.800781 20.835938 C 10.839844 20.835938 10.878906 20.835938 10.921875 20.835938 C 11.054688 20.835938 11.183594 20.835938 11.316406 20.835938 C 11.410156 20.835938 11.507812 20.835938 11.601562 20.835938 C 11.804688 20.832031 12.011719 20.832031 12.214844 20.832031 C 12.539062 20.832031 12.859375 20.832031 13.183594 20.832031 C 13.871094 20.828125 14.558594 20.828125 15.242188 20.824219 C 15.984375 20.824219 16.722656 20.820312 17.464844 20.820312 C 17.785156 20.816406 18.105469 20.816406 18.425781 20.816406 C 18.628906 20.816406 18.828125 20.816406 19.027344 20.816406 C 19.121094 20.816406 19.210938 20.816406 19.304688 20.816406 C 20.089844 20.816406 20.835938 20.796875 21.449219 20.234375 C 21.839844 19.816406 22.027344 19.351562 22.027344 18.789062 C 22.027344 18.746094 22.03125 18.707031 22.03125 18.664062 C 22.03125 18.527344 22.03125 18.390625 22.03125 18.253906 C 22.03125 18.15625 22.03125 18.058594 22.03125 17.957031 C 22.035156 17.636719 22.035156 17.3125 22.035156 16.992188 C 22.035156 16.878906 22.035156 16.769531 22.035156 16.65625 C 22.035156 16.195312 22.039062 15.730469 22.039062 15.269531 C 22.039062 14.605469 22.039062 13.945312 22.042969 13.28125 C 22.046875 12.816406 22.046875 12.351562 22.046875 11.882812 C 22.046875 11.605469 22.046875 11.328125 22.046875 11.050781 C 22.050781 10.789062 22.050781 10.527344 22.050781 10.265625 C 22.050781 10.167969 22.050781 10.070312 22.050781 9.976562 C 22.058594 9.222656 21.949219 8.636719 21.40625 8.074219 C 20.964844 7.664062 20.503906 7.5625 19.921875 7.5625 C 19.847656 7.5625 19.847656 7.5625 19.769531 7.5625 C 19.605469 7.5625 19.4375 7.5625 19.269531 7.5625 C 19.152344 7.5625 19.03125 7.5625 18.914062 7.5625 C 18.65625 7.558594 18.398438 7.558594 18.140625 7.558594 C 17.734375 7.558594 17.328125 7.558594 16.921875 7.558594 C 16.785156 7.558594 16.644531 7.558594 16.503906 7.558594 C 16.46875 7.558594 16.4375 7.558594 16.398438 7.558594 C 16.003906 7.554688 15.609375 7.554688 15.214844 7.554688 C 15.175781 7.554688 15.140625 7.554688 15.105469 7.554688 C 14.519531 7.554688 13.933594 7.554688 13.347656 7.550781 C 12.742188 7.550781 12.140625 7.550781 11.539062 7.550781 C 11.167969 7.546875 10.796875 7.546875 10.425781 7.546875 C 10.144531 7.546875 9.859375 7.546875 9.574219 7.546875 C 9.457031 7.546875 9.339844 7.546875 9.222656 7.546875 C 9.066406 7.546875 8.90625 7.546875 8.746094 7.542969 C 8.699219 7.546875 8.65625 7.546875 8.605469 7.546875 C 8.328125 7.542969 8.171875 7.507812 7.960938 7.324219 C 7.886719 7.183594 7.890625 7.089844 7.910156 6.933594 C 8.035156 6.78125 8.113281 6.703125 8.300781 6.640625 C 8.421875 6.636719 8.542969 6.632812 8.664062 6.636719 C 8.71875 6.636719 8.71875 6.636719 8.773438 6.636719 C 8.894531 6.636719 9.015625 6.636719 9.136719 6.636719 C 9.222656 6.636719 9.304688 6.636719 9.390625 6.636719 C 9.609375 6.636719 9.832031 6.636719 10.054688 6.636719 C 10.320312 6.636719 10.585938 6.636719 10.851562 6.636719 C 11.253906 6.640625 11.65625 6.640625 12.0625 6.640625 C 12.0625 5.820312 12.0625 4.996094 12.0625 4.148438 C 11.898438 4.101562 11.738281 4.054688 11.570312 4.003906 C 11.410156 3.921875 11.273438 3.820312 11.132812 3.710938 C 11.101562 3.6875 11.074219 3.664062 11.042969 3.640625 C 10.6875 3.328125 10.421875 2.792969 10.390625 2.320312 C 10.371094 1.644531 10.515625 1.085938 10.984375 0.578125 C 11.738281 -0.140625 12.835938 -0.203125 13.707031 0.328125 Z M 13.707031 0.328125 "/>
<path style=" stroke:none;fill-rule:nonzero;fill:rgb(26.666667%,55.686275%,99.607843%);fill-opacity:1;" d="M 8.691406 11.179688 C 9.128906 11.488281 9.433594 11.933594 9.570312 12.453125 C 9.628906 13.121094 9.542969 13.695312 9.125 14.246094 C 8.765625 14.671875 8.304688 14.964844 7.742188 15.015625 C 7.101562 15.050781 6.558594 14.890625 6.066406 14.464844 C 5.628906 14.027344 5.40625 13.515625 5.390625 12.894531 C 5.398438 12.296875 5.632812 11.796875 6.054688 11.375 C 6.828125 10.707031 7.824219 10.65625 8.691406 11.179688 Z M 8.691406 11.179688 "/>
<path style=" stroke:none;fill-rule:nonzero;fill:rgb(26.666667%,55.686275%,99.607843%);fill-opacity:1;" d="M 18.703125 11.179688 C 19.109375 11.460938 19.421875 11.898438 19.558594 12.378906 C 19.679688 13.070312 19.515625 13.679688 19.128906 14.25 C 18.847656 14.613281 18.398438 14.890625 17.949219 14.972656 C 17.285156 15.042969 16.773438 14.988281 16.21875 14.585938 C 15.851562 14.28125 15.625 13.929688 15.476562 13.476562 C 15.46875 13.449219 15.460938 13.417969 15.449219 13.390625 C 15.335938 12.792969 15.425781 12.253906 15.75 11.742188 C 16.460938 10.761719 17.679688 10.570312 18.703125 11.179688 Z M 18.703125 11.179688 "/>
<path style=" stroke:none;fill-rule:nonzero;fill:rgb(78.823529%,84.705882%,98.823529%);fill-opacity:1;" d="M 20.214844 7.519531 C 20.710938 7.527344 21.144531 7.757812 21.503906 8.09375 C 21.882812 8.503906 22.085938 8.992188 22.082031 9.542969 C 22.082031 9.585938 22.082031 9.625 22.085938 9.667969 C 22.085938 9.804688 22.085938 9.941406 22.085938 10.078125 C 22.085938 10.179688 22.085938 10.277344 22.085938 10.375 C 22.085938 10.640625 22.085938 10.910156 22.085938 11.175781 C 22.085938 11.34375 22.085938 11.507812 22.085938 11.675781 C 22.089844 12.257812 22.089844 12.839844 22.089844 13.421875 C 22.089844 13.964844 22.089844 14.507812 22.089844 15.050781 C 22.09375 15.515625 22.09375 15.984375 22.09375 16.449219 C 22.09375 16.726562 22.09375 17.003906 22.09375 17.285156 C 22.09375 17.546875 22.09375 17.808594 22.09375 18.070312 C 22.09375 18.164062 22.09375 18.261719 22.09375 18.355469 C 22.101562 19.285156 22.101562 19.285156 21.875 19.679688 C 21.839844 19.742188 21.839844 19.742188 21.804688 19.808594 C 21.480469 20.285156 21.105469 20.65625 20.519531 20.78125 C 20.417969 20.792969 20.316406 20.796875 20.214844 20.800781 C 20.25 20.769531 20.28125 20.734375 20.316406 20.703125 C 20.363281 20.65625 20.410156 20.605469 20.460938 20.554688 C 20.484375 20.53125 20.511719 20.503906 20.539062 20.476562 C 20.996094 19.996094 21.207031 19.367188 21.203125 18.714844 C 21.203125 18.675781 21.207031 18.632812 21.207031 18.59375 C 21.207031 18.457031 21.207031 18.320312 21.207031 18.183594 C 21.207031 18.085938 21.207031 17.988281 21.207031 17.886719 C 21.207031 17.621094 21.210938 17.355469 21.210938 17.089844 C 21.210938 16.925781 21.210938 16.757812 21.210938 16.589844 C 21.210938 16.011719 21.210938 15.429688 21.210938 14.847656 C 21.210938 14.308594 21.214844 13.765625 21.214844 13.226562 C 21.21875 12.761719 21.21875 12.296875 21.21875 11.832031 C 21.21875 11.554688 21.21875 11.277344 21.21875 11 C 21.222656 10.738281 21.222656 10.476562 21.222656 10.21875 C 21.222656 10.121094 21.222656 10.027344 21.222656 9.929688 C 21.226562 9.179688 21.117188 8.621094 20.65625 8.007812 C 20.621094 7.964844 20.585938 7.917969 20.554688 7.875 C 20.445312 7.75 20.332031 7.632812 20.214844 7.519531 Z M 20.214844 7.519531 "/>
<path style=" stroke:none;fill-rule:nonzero;fill:rgb(49.411765%,67.058824%,98.039216%);fill-opacity:1;" d="M 22.898438 12.0625 C 23.574219 12.0625 23.574219 12.0625 23.875 12.257812 C 24.097656 12.480469 24.183594 12.667969 24.183594 12.980469 C 24.183594 13.066406 24.183594 13.066406 24.1875 13.15625 C 24.1875 13.21875 24.1875 13.28125 24.1875 13.34375 C 24.1875 13.40625 24.1875 13.472656 24.1875 13.535156 C 24.1875 13.671875 24.1875 13.808594 24.1875 13.941406 C 24.1875 14.117188 24.1875 14.289062 24.191406 14.460938 C 24.191406 14.625 24.191406 14.792969 24.191406 14.957031 C 24.191406 15.019531 24.195312 15.082031 24.195312 15.144531 C 24.191406 15.476562 24.179688 15.699219 23.976562 15.96875 C 23.617188 16.300781 23.441406 16.257812 22.898438 16.257812 C 22.898438 14.875 22.898438 13.488281 22.898438 12.0625 Z M 22.898438 12.0625 "/>
<path style=" stroke:none;fill-rule:nonzero;fill:rgb(63.529412%,75.686275%,96.862745%);fill-opacity:1;" d="M 18.121094 11.804688 C 18.253906 11.890625 18.355469 11.988281 18.457031 12.109375 C 18.492188 12.148438 18.527344 12.191406 18.5625 12.230469 C 18.777344 12.527344 18.796875 12.828125 18.75 13.183594 C 18.621094 13.578125 18.433594 13.863281 18.066406 14.0625 C 17.761719 14.214844 17.375 14.21875 17.050781 14.117188 C 16.699219 13.957031 16.421875 13.707031 16.28125 13.335938 C 16.195312 12.9375 16.222656 12.570312 16.429688 12.214844 C 16.828125 11.660156 17.507812 11.492188 18.121094 11.804688 Z M 18.121094 11.804688 "/>
<path style=" stroke:none;fill-rule:nonzero;fill:rgb(63.529412%,75.686275%,96.862745%);fill-opacity:1;" d="M 8 11.753906 C 8.378906 11.949219 8.609375 12.191406 8.742188 12.597656 C 8.804688 13.019531 8.746094 13.371094 8.496094 13.71875 C 8.257812 13.992188 7.980469 14.136719 7.621094 14.175781 C 7.167969 14.195312 6.882812 14.070312 6.542969 13.769531 C 6.289062 13.402344 6.175781 13.039062 6.25 12.597656 C 6.363281 12.230469 6.628906 11.988281 6.933594 11.765625 C 7.269531 11.609375 7.660156 11.609375 8 11.753906 Z M 8 11.753906 "/>
<path style=" stroke:none;fill-rule:nonzero;fill:rgb(98.823529%,99.215686%,99.607843%);fill-opacity:1;" d="M 13.132812 0.976562 C 13.410156 1.15625 13.640625 1.382812 13.71875 1.710938 C 13.761719 2.085938 13.800781 2.488281 13.550781 2.800781 C 13.300781 3.0625 13.050781 3.292969 12.675781 3.339844 C 12.203125 3.34375 11.929688 3.285156 11.582031 2.960938 C 11.363281 2.742188 11.261719 2.515625 11.257812 2.207031 C 11.257812 2.171875 11.257812 2.140625 11.257812 2.105469 C 11.257812 2.070312 11.257812 2.035156 11.257812 2 C 11.273438 1.605469 11.378906 1.398438 11.660156 1.132812 C 12.117188 0.761719 12.605469 0.738281 13.132812 0.976562 Z M 13.132812 0.976562 "/>
<path style=" stroke:none;fill-rule:nonzero;fill:rgb(26.666667%,55.686275%,99.607843%);fill-opacity:1;" d="M 10.46875 15.804688 C 10.683594 15.882812 10.777344 15.992188 10.929688 16.160156 C 11.34375 16.554688 11.917969 16.621094 12.464844 16.617188 C 12.511719 16.617188 12.554688 16.617188 12.601562 16.617188 C 13.140625 16.605469 13.703125 16.515625 14.105469 16.121094 C 14.132812 16.089844 14.160156 16.058594 14.191406 16.027344 C 14.308594 15.902344 14.359375 15.867188 14.53125 15.808594 C 14.695312 15.820312 14.695312 15.820312 14.863281 15.917969 C 14.992188 16.0625 14.992188 16.0625 15.03125 16.226562 C 14.953125 16.582031 14.65625 16.820312 14.367188 17.023438 C 13.570312 17.519531 12.515625 17.625 11.601562 17.445312 C 11.441406 17.402344 11.289062 17.351562 11.132812 17.285156 C 11.089844 17.269531 11.046875 17.25 11 17.234375 C 10.613281 17.0625 10.242188 16.765625 10.007812 16.40625 C 9.980469 16.238281 9.980469 16.238281 10.007812 16.0625 C 10.15625 15.894531 10.242188 15.824219 10.46875 15.804688 Z M 10.46875 15.804688 "/>
<path style=" stroke:none;fill-rule:nonzero;fill:rgb(99.215686%,99.607843%,99.607843%);fill-opacity:1;" d="M 1.953125 12.109375 C 1.9375 12.140625 1.917969 12.171875 1.902344 12.203125 C 1.703125 12.589844 1.671875 12.914062 1.679688 13.347656 C 1.679688 13.410156 1.679688 13.476562 1.679688 13.542969 C 1.679688 13.679688 1.679688 13.820312 1.679688 13.957031 C 1.679688 14.132812 1.679688 14.304688 1.679688 14.480469 C 1.679688 14.617188 1.679688 14.753906 1.679688 14.890625 C 1.679688 14.984375 1.679688 15.082031 1.679688 15.175781 C 1.683594 15.496094 1.710938 15.746094 1.863281 16.03125 C 1.90625 16.113281 1.90625 16.113281 1.90625 16.210938 C 1.335938 16.261719 1.335938 16.261719 1.121094 16.082031 C 0.949219 15.917969 0.84375 15.714844 0.8125 15.480469 C 0.808594 15.429688 0.808594 15.378906 0.808594 15.328125 C 0.808594 15.242188 0.808594 15.242188 0.808594 15.15625 C 0.808594 15.09375 0.808594 15.03125 0.808594 14.96875 C 0.808594 14.90625 0.804688 14.84375 0.804688 14.777344 C 0.804688 14.640625 0.804688 14.507812 0.804688 14.371094 C 0.804688 14.199219 0.804688 14.03125 0.800781 13.859375 C 0.800781 13.695312 0.800781 13.527344 0.800781 13.363281 C 0.800781 13.304688 0.800781 13.242188 0.796875 13.179688 C 0.800781 12.824219 0.835938 12.578125 1.074219 12.304688 C 1.335938 12.050781 1.613281 12.09375 1.953125 12.109375 Z M 1.953125 12.109375 "/>
<path style=" stroke:none;fill-rule:nonzero;fill:rgb(99.215686%,99.607843%,99.607843%);fill-opacity:1;" d="M 2.929688 16.648438 C 3.203125 16.648438 3.476562 16.648438 3.757812 16.648438 C 3.761719 16.722656 3.761719 16.792969 3.761719 16.867188 C 3.761719 17.140625 3.765625 17.410156 3.769531 17.679688 C 3.769531 17.796875 3.773438 17.914062 3.773438 18.027344 C 3.765625 18.921875 3.765625 18.921875 4.003906 19.773438 C 4.03125 19.832031 4.054688 19.890625 4.082031 19.953125 C 4.253906 20.246094 4.433594 20.46875 4.699219 20.683594 C 4.742188 20.714844 4.742188 20.714844 4.785156 20.75 C 4.785156 20.769531 4.785156 20.785156 4.785156 20.800781 C 4.292969 20.785156 3.886719 20.59375 3.523438 20.261719 C 3.183594 19.894531 2.921875 19.441406 2.925781 18.933594 C 2.925781 18.882812 2.925781 18.832031 2.925781 18.78125 C 2.925781 18.726562 2.925781 18.671875 2.925781 18.613281 C 2.925781 18.558594 2.925781 18.503906 2.925781 18.445312 C 2.925781 18.265625 2.925781 18.085938 2.925781 17.90625 C 2.925781 17.785156 2.925781 17.664062 2.925781 17.542969 C 2.929688 17.246094 2.929688 16.949219 2.929688 16.648438 Z M 2.929688 16.648438 "/>
<path style=" stroke:none;fill-rule:nonzero;fill:rgb(99.215686%,99.607843%,99.607843%);fill-opacity:1;" d="M 4.734375 7.570312 C 4.703125 7.597656 4.671875 7.625 4.640625 7.65625 C 4.019531 8.28125 3.796875 8.949219 3.789062 9.804688 C 3.789062 9.859375 3.785156 9.914062 3.785156 9.96875 C 3.78125 10.136719 3.78125 10.308594 3.777344 10.476562 C 3.777344 10.59375 3.773438 10.707031 3.773438 10.824219 C 3.769531 11.105469 3.761719 11.386719 3.757812 11.671875 C 3.484375 11.671875 3.210938 11.671875 2.929688 11.671875 C 2.921875 11.320312 2.917969 10.96875 2.917969 10.617188 C 2.914062 10.5 2.914062 10.378906 2.910156 10.261719 C 2.910156 10.085938 2.90625 9.914062 2.90625 9.742188 C 2.90625 9.691406 2.902344 9.636719 2.902344 9.585938 C 2.902344 8.984375 3.140625 8.488281 3.554688 8.0625 C 3.898438 7.742188 4.257812 7.523438 4.734375 7.570312 Z M 4.734375 7.570312 "/>
<path style=" stroke:none;fill-rule:nonzero;fill:rgb(97.254902%,98.431373%,99.607843%);fill-opacity:1;" d="M 5.710938 21.191406 C 5.8125 21.195312 5.914062 21.199219 6.015625 21.207031 C 6.097656 21.210938 6.097656 21.210938 6.183594 21.214844 C 6.359375 21.242188 6.453125 21.28125 6.59375 21.386719 C 6.761719 21.640625 6.722656 21.992188 6.726562 22.285156 C 6.726562 22.359375 6.730469 22.4375 6.734375 22.515625 C 6.769531 23.148438 6.769531 23.148438 6.574219 23.375 C 6.4375 23.476562 6.304688 23.558594 6.152344 23.632812 C 6.109375 23.660156 6.0625 23.6875 6.019531 23.714844 C 5.90625 23.78125 5.90625 23.78125 5.8125 23.78125 C 5.808594 23.75 5.808594 23.71875 5.808594 23.691406 C 5.804688 23.382812 5.796875 23.074219 5.792969 22.769531 C 5.789062 22.652344 5.789062 22.539062 5.785156 22.421875 C 5.785156 22.257812 5.78125 22.09375 5.777344 21.929688 C 5.777344 21.878906 5.777344 21.828125 5.773438 21.773438 C 5.773438 21.726562 5.773438 21.679688 5.773438 21.628906 C 5.769531 21.585938 5.769531 21.542969 5.769531 21.5 C 5.761719 21.390625 5.742188 21.296875 5.710938 21.191406 Z M 5.710938 21.191406 "/>
<path style=" stroke:none;fill-rule:nonzero;fill:rgb(78.431373%,84.705882%,98.823529%);fill-opacity:1;" d="M 12.207031 0.828125 C 12.636719 0.808594 13.007812 0.855469 13.347656 1.132812 C 13.648438 1.429688 13.738281 1.675781 13.75 2.101562 C 13.746094 2.480469 13.660156 2.695312 13.394531 2.964844 C 13.191406 3.148438 12.980469 3.3125 12.703125 3.328125 C 12.648438 3.324219 12.648438 3.324219 12.597656 3.320312 C 12.5625 3.214844 12.5625 3.214844 12.546875 3.078125 C 12.636719 2.929688 12.636719 2.929688 12.742188 2.78125 C 12.914062 2.453125 12.890625 2.019531 12.84375 1.660156 C 12.769531 1.445312 12.671875 1.261719 12.546875 1.074219 C 12.53125 1.042969 12.515625 1.007812 12.5 0.976562 C 12.515625 0.945312 12.53125 0.914062 12.546875 0.878906 C 12.4375 0.878906 12.324219 0.878906 12.207031 0.878906 C 12.207031 0.863281 12.207031 0.847656 12.207031 0.828125 Z M 12.207031 0.828125 "/>
<path style=" stroke:none;fill-rule:nonzero;fill:rgb(98.823529%,99.215686%,99.607843%);fill-opacity:1;" d="M 5.078125 6.640625 C 6.140625 6.640625 7.203125 6.640625 8.300781 6.640625 C 8.253906 6.671875 8.203125 6.703125 8.15625 6.738281 C 8.015625 6.847656 7.964844 6.898438 7.9375 7.078125 C 7.960938 7.242188 8.011719 7.335938 8.105469 7.46875 C 8.054688 7.519531 8.054688 7.519531 7.9375 7.523438 C 7.886719 7.523438 7.835938 7.523438 7.785156 7.523438 C 7.730469 7.523438 7.675781 7.523438 7.617188 7.523438 C 7.5625 7.523438 7.503906 7.523438 7.441406 7.523438 C 7.386719 7.523438 7.328125 7.523438 7.265625 7.523438 C 7.125 7.519531 6.980469 7.519531 6.835938 7.519531 C 6.882812 7.453125 6.882812 7.453125 6.933594 7.382812 C 7.042969 7.210938 7.066406 7.132812 7.03125 6.933594 C 6.960938 6.808594 6.960938 6.808594 6.835938 6.738281 C 6.640625 6.710938 6.539062 6.707031 6.375 6.816406 C 6.273438 6.96875 6.269531 7.046875 6.296875 7.226562 C 6.394531 7.371094 6.394531 7.371094 6.492188 7.519531 C 6.074219 7.519531 5.65625 7.519531 5.226562 7.519531 C 5.273438 7.421875 5.320312 7.328125 5.371094 7.226562 C 5.398438 7.074219 5.398438 7.074219 5.371094 6.933594 C 5.285156 6.820312 5.285156 6.820312 5.175781 6.738281 C 5.144531 6.707031 5.109375 6.671875 5.078125 6.640625 Z M 5.078125 6.640625 "/>
<path style=" stroke:none;fill-rule:nonzero;fill:rgb(63.529412%,75.686275%,96.862745%);fill-opacity:1;" d="M 1.515625 12.0625 C 1.707031 12.0625 1.898438 12.0625 2.101562 12.0625 C 2.101562 13.445312 2.101562 14.832031 2.101562 16.257812 C 1.890625 16.257812 1.679688 16.257812 1.464844 16.257812 C 1.464844 16.242188 1.464844 16.226562 1.464844 16.210938 C 1.609375 16.210938 1.753906 16.210938 1.90625 16.210938 C 1.886719 16.179688 1.871094 16.148438 1.851562 16.117188 C 1.652344 15.730469 1.625 15.40625 1.628906 14.976562 C 1.628906 14.910156 1.628906 14.84375 1.628906 14.777344 C 1.625 14.640625 1.628906 14.503906 1.628906 14.367188 C 1.628906 14.191406 1.628906 14.015625 1.628906 13.84375 C 1.625 13.707031 1.625 13.570312 1.628906 13.433594 C 1.628906 13.339844 1.628906 13.246094 1.625 13.148438 C 1.632812 12.761719 1.695312 12.488281 1.90625 12.15625 C 1.773438 12.140625 1.648438 12.125 1.515625 12.109375 C 1.515625 12.09375 1.515625 12.078125 1.515625 12.0625 Z M 1.515625 12.0625 "/>
<path style=" stroke:none;fill-rule:nonzero;fill:rgb(63.921569%,75.686275%,96.862745%);fill-opacity:1;" d="M 22.949219 12.109375 C 23.179688 12.222656 23.210938 12.285156 23.300781 12.511719 C 23.375 12.777344 23.367188 13.046875 23.367188 13.324219 C 23.367188 13.386719 23.367188 13.453125 23.367188 13.519531 C 23.367188 13.652344 23.367188 13.789062 23.367188 13.925781 C 23.363281 14.097656 23.363281 14.269531 23.367188 14.441406 C 23.367188 14.609375 23.367188 14.773438 23.367188 14.941406 C 23.367188 15.003906 23.367188 15.0625 23.367188 15.125 C 23.363281 15.476562 23.34375 15.8125 23.144531 16.113281 C 23.046875 16.160156 23.046875 16.160156 22.949219 16.210938 C 22.949219 14.859375 22.949219 13.503906 22.949219 12.109375 Z M 22.949219 12.109375 "/>
<path style=" stroke:none;fill-rule:nonzero;fill:rgb(90.588235%,92.54902%,98.823529%);fill-opacity:1;" d="M 12.453125 1.023438 C 12.628906 1.09375 12.695312 1.171875 12.78125 1.34375 C 12.957031 1.757812 12.976562 2.265625 12.839844 2.695312 C 12.746094 2.890625 12.628906 3.054688 12.5 3.222656 C 12.453125 3.15625 12.40625 3.089844 12.359375 3.023438 C 12.332031 2.988281 12.308594 2.949219 12.28125 2.914062 C 12.054688 2.515625 12.035156 2 12.148438 1.558594 C 12.226562 1.359375 12.316406 1.195312 12.453125 1.023438 Z M 12.453125 1.023438 "/>
<path style=" stroke:none;fill-rule:nonzero;fill:rgb(27.45098%,56.078431%,100%);fill-opacity:1;" d="M 6.664062 6.660156 C 6.882812 6.699219 6.953125 6.757812 7.078125 6.933594 C 7.113281 7.117188 7.09375 7.199219 7.011719 7.367188 C 6.851562 7.5 6.75 7.507812 6.550781 7.496094 C 6.445312 7.46875 6.445312 7.46875 6.320312 7.367188 C 6.238281 7.199219 6.214844 7.117188 6.25 6.933594 C 6.378906 6.757812 6.449219 6.699219 6.664062 6.660156 Z M 6.664062 6.660156 "/>
</g>
</svg>
