<?xml version="1.0" encoding="UTF-8"?>
<svg xmlns="http://www.w3.org/2000/svg" xmlns:xlink="http://www.w3.org/1999/xlink" width="25px" height="25px" viewBox="0 0 25 25" version="1.1">
<g id="surface1">
<path style=" stroke:none;fill-rule:nonzero;fill:rgb(0%,0%,0%);fill-opacity:1;" d="M 13.707031 0.328125 C 14.179688 0.667969 14.492188 1.128906 14.601562 1.710938 C 14.644531 2.417969 14.523438 2.960938 14.074219 3.523438 C 13.769531 3.859375 13.382812 4.0625 12.9375 4.148438 C 12.9375 4.972656 12.9375 5.792969 12.9375 6.640625 C 13.160156 6.640625 13.382812 6.636719 13.609375 6.636719 C 14.339844 6.632812 15.070312 6.632812 15.800781 6.628906 C 16.246094 6.628906 16.6875 6.628906 17.132812 6.625 C 17.519531 6.625 17.90625 6.621094 18.292969 6.621094 C 18.496094 6.621094 18.699219 6.621094 18.902344 6.621094 C 19.097656 6.617188 19.289062 6.617188 19.484375 6.617188 C 19.554688 6.617188 19.625 6.617188 19.695312 6.617188 C 20.605469 6.609375 21.386719 6.824219 22.058594 7.457031 C 22.617188 8.003906 22.941406 8.726562 22.960938 9.511719 C 22.960938 9.59375 22.960938 9.671875 22.957031 9.753906 C 22.957031 9.816406 22.957031 9.816406 22.957031 9.882812 C 22.957031 10.015625 22.957031 10.148438 22.957031 10.285156 C 22.953125 10.375 22.953125 10.46875 22.953125 10.558594 C 22.953125 10.785156 22.953125 11.007812 22.949219 11.230469 C 23.019531 11.230469 23.019531 11.230469 23.089844 11.230469 C 23.152344 11.226562 23.214844 11.226562 23.277344 11.226562 C 23.367188 11.226562 23.367188 11.226562 23.460938 11.226562 C 23.90625 11.238281 24.269531 11.453125 24.597656 11.746094 C 25.003906 12.179688 25.03125 12.691406 25.027344 13.257812 C 25.027344 13.328125 25.027344 13.402344 25.027344 13.472656 C 25.027344 13.625 25.027344 13.777344 25.027344 13.929688 C 25.023438 14.121094 25.023438 14.3125 25.027344 14.507812 C 25.027344 14.65625 25.027344 14.804688 25.027344 14.957031 C 25.027344 15.027344 25.027344 15.097656 25.027344 15.167969 C 25.03125 15.792969 24.925781 16.226562 24.488281 16.6875 C 24.144531 16.992188 23.777344 17.097656 23.332031 17.09375 C 23.292969 17.09375 23.257812 17.09375 23.21875 17.09375 C 23.128906 17.089844 23.039062 17.089844 22.949219 17.089844 C 22.949219 17.175781 22.949219 17.175781 22.953125 17.261719 C 22.957031 17.476562 22.957031 17.6875 22.960938 17.902344 C 22.960938 17.992188 22.960938 18.085938 22.964844 18.175781 C 22.980469 19.179688 22.851562 20.03125 22.132812 20.789062 C 22.09375 20.824219 22.058594 20.859375 22.023438 20.898438 C 21.992188 20.929688 21.960938 20.960938 21.933594 20.992188 C 21.734375 21.1875 21.515625 21.308594 21.269531 21.425781 C 21.238281 21.441406 21.207031 21.453125 21.175781 21.46875 C 20.808594 21.636719 20.4375 21.695312 20.035156 21.691406 C 19.972656 21.691406 19.972656 21.691406 19.914062 21.691406 C 19.777344 21.691406 19.644531 21.691406 19.511719 21.691406 C 19.414062 21.691406 19.316406 21.691406 19.222656 21.691406 C 19.015625 21.691406 18.804688 21.691406 18.597656 21.691406 C 18.269531 21.691406 17.945312 21.691406 17.617188 21.691406 C 16.683594 21.695312 15.75 21.695312 14.820312 21.695312 C 14.304688 21.695312 13.789062 21.695312 13.273438 21.695312 C 12.945312 21.699219 12.621094 21.695312 12.296875 21.695312 C 12.09375 21.695312 11.890625 21.695312 11.6875 21.699219 C 11.59375 21.699219 11.5 21.699219 11.40625 21.695312 C 10.738281 21.683594 10.738281 21.683594 10.15625 21.972656 C 10.085938 22.019531 10.015625 22.0625 9.949219 22.109375 C 9.875 22.15625 9.800781 22.207031 9.730469 22.257812 C 9.6875 22.285156 9.648438 22.3125 9.609375 22.339844 C 9.519531 22.398438 9.433594 22.457031 9.347656 22.515625 C 9.117188 22.671875 8.882812 22.832031 8.648438 22.988281 C 8.601562 23.019531 8.554688 23.054688 8.503906 23.085938 C 7.960938 23.453125 7.414062 23.8125 6.871094 24.171875 C 6.800781 24.21875 6.800781 24.21875 6.730469 24.265625 C 6.558594 24.378906 6.386719 24.492188 6.214844 24.601562 C 6.160156 24.636719 6.160156 24.636719 6.105469 24.675781 C 6.070312 24.695312 6.039062 24.71875 6.003906 24.742188 C 5.914062 24.800781 5.828125 24.859375 5.742188 24.917969 C 5.546875 25.042969 5.453125 25.03125 5.226562 25 C 5.070312 24.878906 4.992188 24.804688 4.949219 24.609375 C 4.953125 24.554688 4.953125 24.5 4.953125 24.445312 C 4.953125 24.382812 4.953125 24.324219 4.953125 24.257812 C 4.953125 24.191406 4.957031 24.125 4.957031 24.058594 C 4.957031 23.992188 4.957031 23.921875 4.957031 23.851562 C 4.957031 23.671875 4.960938 23.492188 4.964844 23.3125 C 4.964844 23.128906 4.96875 22.945312 4.96875 22.761719 C 4.972656 22.402344 4.976562 22.039062 4.980469 21.679688 C 4.949219 21.679688 4.921875 21.679688 4.890625 21.679688 C 4.851562 21.679688 4.8125 21.679688 4.769531 21.679688 C 4.730469 21.679688 4.691406 21.679688 4.652344 21.683594 C 3.9375 21.667969 3.316406 21.242188 2.832031 20.75 C 2.804688 20.726562 2.777344 20.699219 2.75 20.671875 C 2.058594 19.949219 2.027344 18.988281 2.042969 18.050781 C 2.042969 17.957031 2.042969 17.863281 2.042969 17.769531 C 2.046875 17.542969 2.046875 17.316406 2.050781 17.089844 C 1.996094 17.089844 1.945312 17.089844 1.890625 17.09375 C 1.816406 17.09375 1.746094 17.09375 1.675781 17.09375 C 1.625 17.09375 1.625 17.09375 1.570312 17.097656 C 1.074219 17.097656 0.757812 16.914062 0.402344 16.574219 C 0.105469 16.246094 -0.00390625 15.933594 -0.0078125 15.5 C -0.0078125 15.46875 -0.0078125 15.4375 -0.0078125 15.40625 C -0.0117188 15.300781 -0.0117188 15.195312 -0.0117188 15.09375 C -0.0117188 15.054688 -0.0117188 15.019531 -0.0117188 14.984375 C -0.0117188 14.792969 -0.015625 14.605469 -0.015625 14.414062 C -0.015625 14.21875 -0.015625 14.023438 -0.0195312 13.828125 C -0.0195312 13.679688 -0.0195312 13.527344 -0.0195312 13.375 C -0.0195312 13.304688 -0.0195312 13.230469 -0.0234375 13.160156 C -0.0273438 12.566406 0.0507812 12.113281 0.472656 11.671875 C 0.851562 11.339844 1.226562 11.222656 1.722656 11.226562 C 1.785156 11.226562 1.847656 11.226562 1.910156 11.230469 C 1.980469 11.230469 1.980469 11.230469 2.050781 11.230469 C 2.050781 11.175781 2.050781 11.121094 2.046875 11.0625 C 2.046875 10.851562 2.042969 10.644531 2.042969 10.433594 C 2.042969 10.34375 2.039062 10.253906 2.039062 10.164062 C 2.027344 9.160156 2.148438 8.277344 2.867188 7.523438 C 3.515625 6.875 4.273438 6.628906 5.171875 6.628906 C 5.238281 6.628906 5.308594 6.628906 5.375 6.628906 C 5.449219 6.628906 5.523438 6.628906 5.59375 6.628906 C 5.792969 6.628906 5.988281 6.628906 6.1875 6.628906 C 6.394531 6.632812 6.601562 6.632812 6.808594 6.632812 C 7.199219 6.632812 7.589844 6.632812 7.980469 6.632812 C 8.425781 6.632812 8.871094 6.636719 9.316406 6.636719 C 10.230469 6.636719 11.144531 6.636719 12.0625 6.640625 C 12.0625 5.820312 12.0625 4.996094 12.0625 4.148438 C 11.898438 4.101562 11.738281 4.054688 11.570312 4.003906 C 11.410156 3.921875 11.273438 3.820312 11.132812 3.710938 C 11.101562 3.6875 11.074219 3.664062 11.042969 3.640625 C 10.6875 3.328125 10.421875 2.792969 10.390625 2.320312 C 10.371094 1.644531 10.515625 1.085938 10.984375 0.578125 C 11.738281 -0.140625 12.835938 -0.203125 13.707031 0.328125 Z M 11.578125 1.257812 C 11.34375 1.550781 11.246094 1.839844 11.257812 2.21875 C 11.316406 2.585938 11.519531 2.875 11.808594 3.105469 C 12.113281 3.304688 12.402344 3.351562 12.761719 3.300781 C 13.117188 3.21875 13.371094 2.980469 13.574219 2.6875 C 13.753906 2.371094 13.773438 2.074219 13.691406 1.726562 C 13.558594 1.339844 13.320312 1.136719 12.976562 0.929688 C 12.449219 0.78125 11.957031 0.855469 11.578125 1.257812 Z M 3.359375 8.328125 C 3.03125 8.769531 2.914062 9.246094 2.917969 9.789062 C 2.917969 9.828125 2.917969 9.867188 2.917969 9.90625 C 2.914062 10.035156 2.917969 10.164062 2.917969 10.292969 C 2.917969 10.386719 2.914062 10.480469 2.914062 10.574219 C 2.914062 10.828125 2.914062 11.078125 2.914062 11.332031 C 2.914062 11.542969 2.914062 11.753906 2.914062 11.96875 C 2.914062 12.464844 2.914062 12.964844 2.914062 13.464844 C 2.914062 13.980469 2.914062 14.492188 2.914062 15.007812 C 2.910156 15.449219 2.910156 15.890625 2.910156 16.332031 C 2.910156 16.597656 2.910156 16.859375 2.910156 17.125 C 2.910156 17.371094 2.910156 17.621094 2.910156 17.867188 C 2.910156 17.960938 2.910156 18.050781 2.910156 18.140625 C 2.90625 18.941406 2.984375 19.605469 3.539062 20.222656 C 3.972656 20.628906 4.4375 20.773438 5.011719 20.828125 C 5.296875 20.867188 5.484375 20.960938 5.683594 21.171875 C 5.792969 21.339844 5.816406 21.46875 5.820312 21.664062 C 5.820312 21.730469 5.820312 21.730469 5.824219 21.800781 C 5.824219 21.875 5.824219 21.875 5.824219 21.953125 C 5.828125 22.003906 5.828125 22.054688 5.828125 22.105469 C 5.832031 22.269531 5.835938 22.429688 5.839844 22.59375 C 5.839844 22.703125 5.84375 22.8125 5.84375 22.921875 C 5.851562 23.191406 5.855469 23.460938 5.859375 23.730469 C 6.167969 23.566406 6.457031 23.386719 6.746094 23.1875 C 6.789062 23.160156 6.828125 23.132812 6.871094 23.101562 C 6.960938 23.042969 7.050781 22.980469 7.140625 22.921875 C 7.375 22.761719 7.609375 22.601562 7.84375 22.445312 C 7.890625 22.414062 7.9375 22.382812 7.984375 22.347656 C 8.386719 22.078125 8.789062 21.808594 9.191406 21.542969 C 9.257812 21.5 9.324219 21.457031 9.390625 21.414062 C 9.480469 21.351562 9.574219 21.292969 9.664062 21.234375 C 9.738281 21.183594 9.738281 21.183594 9.816406 21.132812 C 10.175781 20.914062 10.429688 20.84375 10.84375 20.84375 C 10.90625 20.84375 10.90625 20.84375 10.96875 20.84375 C 11.101562 20.84375 11.238281 20.84375 11.371094 20.84375 C 11.46875 20.84375 11.566406 20.84375 11.664062 20.84375 C 11.871094 20.839844 12.082031 20.839844 12.289062 20.839844 C 12.621094 20.839844 12.949219 20.839844 13.28125 20.839844 C 13.394531 20.839844 13.503906 20.839844 13.617188 20.839844 C 13.703125 20.839844 13.703125 20.839844 13.789062 20.839844 C 14.558594 20.835938 15.328125 20.835938 16.097656 20.832031 C 16.613281 20.832031 17.132812 20.832031 17.652344 20.832031 C 17.925781 20.828125 18.199219 20.828125 18.476562 20.828125 C 18.734375 20.828125 18.992188 20.828125 19.25 20.828125 C 19.34375 20.828125 19.4375 20.828125 19.53125 20.828125 C 20.324219 20.828125 20.910156 20.703125 21.519531 20.160156 C 21.9375 19.71875 22.085938 19.128906 22.082031 18.53125 C 22.082031 18.492188 22.082031 18.453125 22.082031 18.414062 C 22.085938 18.285156 22.082031 18.15625 22.082031 18.027344 C 22.082031 17.933594 22.085938 17.839844 22.085938 17.746094 C 22.085938 17.492188 22.085938 17.242188 22.085938 16.988281 C 22.085938 16.777344 22.085938 16.566406 22.085938 16.351562 C 22.085938 15.855469 22.085938 15.355469 22.085938 14.855469 C 22.085938 14.339844 22.085938 13.828125 22.085938 13.3125 C 22.089844 12.871094 22.089844 12.429688 22.089844 11.988281 C 22.089844 11.722656 22.089844 11.460938 22.089844 11.195312 C 22.089844 10.949219 22.089844 10.699219 22.089844 10.453125 C 22.089844 10.359375 22.089844 10.269531 22.089844 10.179688 C 22.09375 9.386719 22.023438 8.742188 21.472656 8.128906 C 21.0625 7.730469 20.566406 7.515625 19.992188 7.511719 C 19.9375 7.511719 19.882812 7.511719 19.828125 7.511719 C 19.738281 7.511719 19.738281 7.511719 19.648438 7.511719 C 19.585938 7.511719 19.523438 7.511719 19.457031 7.511719 C 19.28125 7.511719 19.105469 7.511719 18.933594 7.511719 C 18.742188 7.511719 18.554688 7.511719 18.363281 7.511719 C 17.90625 7.507812 17.453125 7.507812 16.996094 7.507812 C 16.78125 7.507812 16.566406 7.507812 16.347656 7.507812 C 15.632812 7.507812 14.917969 7.503906 14.203125 7.503906 C 14.015625 7.503906 13.832031 7.503906 13.644531 7.503906 C 13.601562 7.503906 13.554688 7.503906 13.507812 7.503906 C 12.757812 7.503906 12.011719 7.503906 11.265625 7.5 C 10.5 7.5 9.730469 7.5 8.964844 7.5 C 8.53125 7.5 8.101562 7.5 7.671875 7.496094 C 7.304688 7.496094 6.9375 7.496094 6.570312 7.496094 C 6.382812 7.496094 6.195312 7.496094 6.011719 7.496094 C 5.808594 7.496094 5.605469 7.496094 5.402344 7.496094 C 5.34375 7.496094 5.285156 7.496094 5.222656 7.492188 C 4.464844 7.5 3.851562 7.746094 3.359375 8.328125 Z M 1.125 12.304688 C 0.925781 12.523438 0.871094 12.640625 0.871094 12.929688 C 0.871094 12.992188 0.867188 13.050781 0.867188 13.113281 C 0.867188 13.175781 0.867188 13.242188 0.867188 13.308594 C 0.867188 13.339844 0.867188 13.375 0.867188 13.40625 C 0.867188 13.582031 0.863281 13.757812 0.863281 13.929688 C 0.863281 14.109375 0.863281 14.289062 0.859375 14.46875 C 0.859375 14.609375 0.859375 14.746094 0.859375 14.886719 C 0.859375 14.984375 0.855469 15.082031 0.855469 15.179688 C 0.851562 15.613281 0.851562 15.613281 1.074219 15.96875 C 1.429688 16.28125 1.46875 16.210938 2.050781 16.210938 C 2.050781 14.855469 2.050781 13.503906 2.050781 12.109375 C 1.515625 12.078125 1.515625 12.078125 1.125 12.304688 Z M 22.949219 12.109375 C 22.949219 13.460938 22.949219 14.816406 22.949219 16.210938 C 23.503906 16.257812 23.503906 16.257812 23.875 16.015625 C 24.070312 15.796875 24.128906 15.679688 24.128906 15.390625 C 24.128906 15.328125 24.132812 15.269531 24.132812 15.207031 C 24.132812 15.144531 24.132812 15.078125 24.132812 15.011719 C 24.132812 14.980469 24.132812 14.945312 24.132812 14.914062 C 24.132812 14.738281 24.136719 14.5625 24.136719 14.390625 C 24.136719 14.210938 24.136719 14.03125 24.140625 13.851562 C 24.140625 13.710938 24.140625 13.574219 24.140625 13.433594 C 24.140625 13.335938 24.144531 13.238281 24.144531 13.140625 C 24.148438 12.707031 24.148438 12.707031 23.925781 12.351562 C 23.589844 12.050781 23.457031 12.109375 22.949219 12.109375 Z M 22.949219 12.109375 "/>
<path style=" stroke:none;fill-rule:nonzero;fill:rgb(0%,0%,0%);fill-opacity:1;" d="M 19.042969 11.425781 C 19.433594 11.863281 19.632812 12.402344 19.628906 12.988281 C 19.59375 13.550781 19.371094 14.117188 18.945312 14.5 C 18.421875 14.917969 17.871094 15.074219 17.203125 15.03125 C 16.703125 14.953125 16.203125 14.6875 15.867188 14.304688 C 15.515625 13.816406 15.335938 13.300781 15.382812 12.695312 C 15.480469 12.101562 15.730469 11.554688 16.230469 11.195312 C 17.160156 10.613281 18.214844 10.679688 19.042969 11.425781 Z M 16.601562 12.0625 C 16.359375 12.351562 16.234375 12.65625 16.257812 13.039062 C 16.335938 13.414062 16.496094 13.707031 16.8125 13.929688 C 17.117188 14.117188 17.386719 14.191406 17.742188 14.144531 C 18.136719 14.042969 18.390625 13.820312 18.601562 13.480469 C 18.753906 13.183594 18.761719 12.792969 18.664062 12.476562 C 18.617188 12.382812 18.566406 12.296875 18.507812 12.207031 C 18.480469 12.164062 18.453125 12.121094 18.425781 12.074219 C 17.886719 11.550781 17.152344 11.570312 16.601562 12.0625 Z M 16.601562 12.0625 "/>
<path style=" stroke:none;fill-rule:nonzero;fill:rgb(0%,0%,0%);fill-opacity:1;" d="M 8.9375 11.335938 C 9.347656 11.726562 9.574219 12.238281 9.628906 12.800781 C 9.644531 13.433594 9.410156 13.996094 8.984375 14.460938 C 8.808594 14.621094 8.609375 14.734375 8.398438 14.84375 C 8.367188 14.859375 8.335938 14.875 8.304688 14.890625 C 7.863281 15.089844 7.289062 15.097656 6.835938 14.941406 C 6.199219 14.675781 5.804688 14.339844 5.515625 13.703125 C 5.320312 13.183594 5.324219 12.617188 5.53125 12.101562 C 5.796875 11.539062 6.132812 11.183594 6.710938 10.933594 C 7.496094 10.65625 8.300781 10.796875 8.9375 11.335938 Z M 6.542969 12.109375 C 6.320312 12.410156 6.257812 12.707031 6.277344 13.078125 C 6.324219 13.414062 6.460938 13.671875 6.726562 13.886719 C 7.042969 14.097656 7.355469 14.199219 7.738281 14.144531 C 8.0625 14.054688 8.363281 13.863281 8.546875 13.574219 C 8.570312 13.53125 8.597656 13.488281 8.628906 13.441406 C 8.757812 13.109375 8.777344 12.796875 8.644531 12.460938 C 8.46875 12.097656 8.242188 11.867188 7.859375 11.71875 C 7.382812 11.582031 6.882812 11.753906 6.542969 12.109375 Z M 6.542969 12.109375 "/>
<path style=" stroke:none;fill-rule:nonzero;fill:rgb(0%,0%,0%);fill-opacity:1;" d="M 10.59375 15.820312 C 10.703125 15.894531 10.792969 15.980469 10.886719 16.070312 C 11.359375 16.511719 12.039062 16.640625 12.667969 16.621094 C 13.273438 16.554688 13.765625 16.398438 14.210938 15.976562 C 14.351562 15.851562 14.394531 15.820312 14.585938 15.785156 C 14.777344 15.828125 14.859375 15.867188 14.992188 16.015625 C 15.042969 16.195312 15.058594 16.304688 14.992188 16.480469 C 14.492188 17.101562 13.863281 17.367188 13.09375 17.515625 C 13.023438 17.523438 12.957031 17.527344 12.890625 17.53125 C 12.835938 17.53125 12.777344 17.535156 12.722656 17.535156 C 11.835938 17.5625 10.984375 17.402344 10.304688 16.796875 C 10.273438 16.773438 10.242188 16.746094 10.210938 16.722656 C 10.074219 16.597656 10.011719 16.507812 9.957031 16.328125 C 9.960938 16.140625 9.992188 16.0625 10.109375 15.917969 C 10.296875 15.792969 10.371094 15.789062 10.59375 15.820312 Z M 10.59375 15.820312 "/>
</g>
</svg>
